<?xml version="1.0" encoding="UTF-8"?>
<!DOCTYPE svg PUBLIC "-//W3C//DTD SVG 1.1//EN" "http://www.w3.org/Graphics/SVG/1.1/DTD/svg11.dtd">
<svg xmlns="http://www.w3.org/2000/svg" version="1.1" width="156px" height="80px" style="shape-rendering:geometricPrecision; text-rendering:geometricPrecision; image-rendering:optimizeQuality; fill-rule:evenodd; clip-rule:evenodd" xmlns:xlink="http://www.w3.org/1999/xlink">
<g><path style="opacity:0.004" fill="#464c53" d="M 108.5,-0.5 C 109.833,-0.5 111.167,-0.5 112.5,-0.5C 111.167,0.833333 109.833,0.833333 108.5,-0.5 Z"/></g>
<g><path style="opacity:0.004" fill="#000000" d="M 113.5,-0.5 C 113.833,-0.5 114.167,-0.5 114.5,-0.5C 114.5,-0.166667 114.5,0.166667 114.5,0.5C 114.167,0.166667 113.833,-0.166667 113.5,-0.5 Z"/></g>
<g><path style="opacity:0.004" fill="#000000" d="M 121.5,-0.5 C 121.833,-0.5 122.167,-0.5 122.5,-0.5C 122.315,0.170143 121.981,0.170143 121.5,-0.5 Z"/></g>
<g><path style="opacity:0.008" fill="#808d97" d="M 123.5,-0.5 C 124.5,-0.5 125.5,-0.5 126.5,-0.5C 125.5,0.833333 124.5,0.833333 123.5,-0.5 Z"/></g>
<g><path style="opacity:0.008" fill="#656a76" d="M 105.5,1.5 C 105.897,0.474981 106.563,0.308314 107.5,1C 106.906,1.46434 106.239,1.63101 105.5,1.5 Z"/></g>
<g><path style="opacity:0.008" fill="#7b828d" d="M 127.5,1.5 C 127.897,0.474981 128.563,0.308314 129.5,1C 128.906,1.46434 128.239,1.63101 127.5,1.5 Z"/></g>
<g><path style="opacity:0.004" fill="#2e3135" d="M 105.5,1.5 C 105.5,1.83333 105.5,2.16667 105.5,2.5C 102.833,2.16667 102.833,1.83333 105.5,1.5 Z"/></g>
<g><path style="opacity:0.008" fill="#b4bcc5" d="M 97.5,4.5 C 98.8333,5.16667 98.8333,5.16667 97.5,4.5 Z"/></g>
<g><path style="opacity:0.004" fill="#b9bbc3" d="M 136.5,5.5 C 136.897,4.47498 137.563,4.30831 138.5,5C 137.906,5.46434 137.239,5.63101 136.5,5.5 Z"/></g>
<g><path style="opacity:0.008" fill="#000015" d="M 97.5,5.5 C 97.5,5.83333 97.5,6.16667 97.5,6.5C 96.8299,6.01865 96.8299,5.68532 97.5,5.5 Z"/></g>
<g><path style="opacity:0.004" fill="#a2a2a2" d="M 141.5,9.5 C 142.167,8.16667 142.833,8.16667 143.5,9.5C 142.833,9.5 142.167,9.5 141.5,9.5 Z"/></g>
<g><path style="opacity:0.004" fill="#fefffe" d="M 143.5,9.5 C 144.167,9.5 144.5,9.83333 144.5,10.5C 144.167,10.1667 143.833,9.83333 143.5,9.5 Z"/></g>
<g><path style="opacity:0.004" fill="#fefffe" d="M 144.5,10.5 C 145.833,11.1667 145.833,11.1667 144.5,10.5 Z"/></g>
<g><path style="opacity:1" fill="#f8f1ce" d="M 131.5,6.5 C 133.048,6.82124 133.715,7.82124 133.5,9.5C 133.833,12.1667 134.167,12.1667 134.5,9.5C 135.167,9.5 135.5,9.16667 135.5,8.5C 137.027,8.42702 138.027,9.09368 138.5,10.5C 137.89,11.391 137.557,12.391 137.5,13.5C 138.833,13.5 139.5,12.8333 139.5,11.5C 140.833,12.1667 141.833,13.1667 142.5,14.5C 141.662,14.8417 141.328,15.5084 141.5,16.5C 140.833,16.5 140.5,16.8333 140.5,17.5C 140.167,17.5 139.833,17.5 139.5,17.5C 140.087,16.2334 140.087,15.2334 139.5,14.5C 137.807,16.0267 135.973,17.3601 134,18.5C 134.333,16.5 134.667,14.5 135,12.5C 130.133,17.6473 129.3,16.6473 132.5,9.5C 132.333,9.16667 132.167,8.83333 132,8.5C 131.292,9.38053 130.458,10.0472 129.5,10.5C 129.5,9.83333 129.5,9.16667 129.5,8.5C 130.5,8.16667 131.167,7.5 131.5,6.5 Z"/></g>
<g><path style="opacity:0.004" fill="#000000" d="M 4.5,13.5 C 5.25057,12.4265 6.25057,12.2599 7.5,13C 6.55198,13.4828 5.55198,13.6495 4.5,13.5 Z"/></g>
<g><path style="opacity:0.008" fill="#636262" d="M 48.5,13.5 C 49.6009,12.4017 50.9343,12.235 52.5,13C 51.2068,13.49 49.8734,13.6567 48.5,13.5 Z"/></g>
<g><path style="opacity:0.71" fill="#e0dcc3" d="M 96.5,10.5 C 96.8417,9.66175 97.5084,9.32842 98.5,9.5C 99.609,9.55688 100.609,9.89022 101.5,10.5C 101.5,11.1667 101.5,11.8333 101.5,12.5C 100.542,12.0472 99.7083,11.3805 99,10.5C 99.2204,12.9631 100.054,15.2965 101.5,17.5C 99.9891,16.4975 98.3224,15.8308 96.5,15.5C 95.9644,18.6981 96.631,21.3647 98.5,23.5C 97.1667,24.8333 95.8333,24.8333 94.5,23.5C 94.631,22.7611 94.4643,22.0944 94,21.5C 92.3005,22.4061 90.4672,22.7394 88.5,22.5C 88.2627,21.209 88.596,20.209 89.5,19.5C 91.2238,18.7402 92.8905,18.4069 94.5,18.5C 92.9547,17.5481 91.288,17.2148 89.5,17.5C 89.8333,16.5 90.5,15.8333 91.5,15.5C 91.56,16.0431 91.8933,16.3764 92.5,16.5C 93.7733,15.7435 93.7733,15.0768 92.5,14.5C 93.1667,13.1667 94.1667,12.1667 95.5,11.5C 95.8333,12.5 96.5,13.1667 97.5,13.5C 97.7373,12.209 97.404,11.209 96.5,10.5 Z M 89.5,19.5 C 91.337,19.6395 91.6704,20.3061 90.5,21.5C 89.7025,21.0431 89.3691,20.3764 89.5,19.5 Z"/></g>
<g><path style="opacity:0.008" fill="#7a7777" d="M 13.5,15.5 C 13.8966,14.475 14.5632,14.3083 15.5,15C 14.9056,15.4643 14.2389,15.631 13.5,15.5 Z"/></g>
<g><path style="opacity:0.008" fill="#4f4d4e" d="M 19.5,15.5 C 19.8966,14.475 20.5632,14.3083 21.5,15C 20.9056,15.4643 20.2389,15.631 19.5,15.5 Z"/></g>
<g><path style="opacity:0.008" fill="#272526" d="M 24.5,15.5 C 27.3035,14.3622 30.3035,14.1955 33.5,15C 30.5184,15.498 27.5184,15.6646 24.5,15.5 Z"/></g>
<g><path style="opacity:0.008" fill="#2e2b2c" d="M 53.5,15.5 C 54.6009,14.4017 55.9343,14.235 57.5,15C 56.2068,15.49 54.8734,15.6567 53.5,15.5 Z"/></g>
<g><path style="opacity:0.008" fill="#2e2e2e" d="M 64.5,15.5 C 63.7611,15.631 63.0944,15.4643 62.5,15C 63.4368,14.3083 64.1034,14.475 64.5,15.5 Z"/></g>
<g><path style="opacity:0.008" fill="#787777" d="M 67.5,15.5 C 68.2506,14.4265 69.2506,14.2599 70.5,15C 69.552,15.4828 68.552,15.6495 67.5,15.5 Z"/></g>
<g><path style="opacity:0.008" fill="#7c7b7b" d="M 81.5,15.5 C 79.1432,15.6633 76.8098,15.4966 74.5,15C 77.0385,14.2042 79.3718,14.3709 81.5,15.5 Z"/></g>
<g><path style="opacity:0.008" fill="#333030" d="M 11.5,18.5 C 10.7784,18.9175 10.2784,19.5842 10,20.5C 9.33333,18.5 9.33333,16.5 10,14.5C 10.4101,15.9007 10.9101,17.234 11.5,18.5 Z"/></g>
<g><path style="opacity:0.004" fill="#fefefd" d="M 35.5,15.5 C 36.8333,16.1667 36.8333,16.1667 35.5,15.5 Z"/></g>
<g><path style="opacity:0.004" fill="#fefffd" d="M 60.5,15.5 C 61.8333,16.1667 61.8333,16.1667 60.5,15.5 Z"/></g>
<g><path style="opacity:0.008" fill="#030000" d="M 81.5,15.5 C 82.8333,16.1667 82.8333,16.1667 81.5,15.5 Z"/></g>
<g><path style="opacity:0.004" fill="#747475" d="M 87.5,16.5 C 84.9991,16.4891 84.8324,15.8224 87,14.5C 87.4643,15.0944 87.631,15.7611 87.5,16.5 Z"/></g>
<g><path style="opacity:0.348" fill="#a6a4a4" d="M 8.5,21.5 C 7.53862,19.7354 7.20528,17.7354 7.5,15.5C 6.5,15.5 5.5,15.5 4.5,15.5C 4.5,18.1667 4.5,20.8333 4.5,23.5C 3.52333,20.7131 3.19,17.7131 3.5,14.5C 5.16667,14.5 6.83333,14.5 8.5,14.5C 8.5,16.8333 8.5,19.1667 8.5,21.5 Z"/></g>
<g><path style="opacity:0.004" fill="#fefffe" d="M 83.5,16.5 C 84.8333,17.1667 84.8333,17.1667 83.5,16.5 Z"/></g>
<g><path style="opacity:0.004" fill="#c5c4c4" d="M 1.5,15.5 C 2.62914,17.6282 2.79581,19.9615 2,22.5C 1.50335,20.1902 1.33669,17.8568 1.5,15.5 Z"/></g>
<g><path style="opacity:0.992" fill="#302d2d" d="M 37.5,17.5 C 40.5,17.5 43.5,17.5 46.5,17.5C 46.5,20.1667 46.5,22.8333 46.5,25.5C 42.9581,25.8128 39.6248,25.4794 36.5,24.5C 36.5,24.1667 36.5,23.8333 36.5,23.5C 35.1353,21.2492 35.4686,19.2492 37.5,17.5 Z M 42.5,19.5 C 42.5,20.1667 42.5,20.8333 42.5,21.5C 39.8333,20.8333 39.8333,20.1667 42.5,19.5 Z"/></g>
<g><path style="opacity:0.727" fill="#949292" d="M 62.5,17.5 C 61.0582,18.8195 60.3915,20.4862 60.5,22.5C 60.1667,22.5 59.8333,22.5 59.5,22.5C 58.8403,17.8182 57.5069,17.4849 55.5,21.5C 54.8106,22.7736 53.9772,22.7736 53,21.5C 50.4506,13.9007 49.2839,14.5674 49.5,23.5C 52.5,23.5 55.5,23.5 58.5,23.5C 58.5,23.8333 58.5,24.1667 58.5,24.5C 54.8936,24.7892 51.3936,24.4558 48,23.5C 47.5357,24.0944 47.369,24.7611 47.5,25.5C 47.5,25.8333 47.5,26.1667 47.5,26.5C 43.0293,27.0894 39.0293,26.4228 35.5,24.5C 35.8333,24.5 36.1667,24.5 36.5,24.5C 39.6248,25.4794 42.9581,25.8128 46.5,25.5C 46.5,22.8333 46.5,20.1667 46.5,17.5C 43.5,17.5 40.5,17.5 37.5,17.5C 40.6414,16.6787 43.9748,16.1787 47.5,16C 44.1667,15.6667 40.8333,15.3333 37.5,15C 44.6351,14.2179 51.6351,14.8846 58.5,17C 59.564,18.5106 60.8974,18.6772 62.5,17.5 Z M 55.5,21.5 C 54.7109,21.2172 54.0442,20.7172 53.5,20C 54.816,19.4719 55.4827,19.9719 55.5,21.5 Z"/></g>
<g><path style="opacity:0.999" fill="#343130" d="M 64.5,15.5 C 65.5,15.5 66.5,15.5 67.5,15.5C 68.2625,16.2679 69.2625,16.7679 70.5,17C 71.2524,17.6708 71.5858,18.5041 71.5,19.5C 71.631,20.2389 71.4643,20.9056 71,21.5C 69.2573,19.3721 67.0907,18.5387 64.5,19C 68.3605,19.5691 68.3605,20.4024 64.5,21.5C 66.2914,22.1698 67.9581,22.8365 69.5,23.5C 68.5514,24.1524 67.3847,24.4857 66,24.5C 63.7794,24.6068 61.9461,23.9402 60.5,22.5C 60.3915,20.4862 61.0582,18.8195 62.5,17.5C 63.1667,16.8333 63.8333,16.1667 64.5,15.5 Z"/></g>
<g><path style="opacity:0.038" fill="#d5d4d4" d="M 33.5,17.5 C 30.5,17.5 27.5,17.5 24.5,17.5C 24.5,19.5 24.5,21.5 24.5,23.5C 25.5,23.5 26.5,23.5 27.5,23.5C 27.2322,21.901 27.5655,20.5676 28.5,19.5C 29.0715,20.9733 29.0715,22.64 28.5,24.5C 26.8333,24.5 25.1667,24.5 23.5,24.5C 23.6716,23.5084 23.3382,22.8417 22.5,22.5C 23.8333,20.8333 23.8333,19.1667 22.5,17.5C 26.2684,16.2134 29.9351,16.2134 33.5,17.5 Z"/></g>
<g><path style="opacity:0.122" fill="#dddcdc" d="M 42.5,19.5 C 39.8333,20.1667 39.8333,20.8333 42.5,21.5C 41.791,22.404 40.791,22.7373 39.5,22.5C 39.5,21.1667 39.5,19.8333 39.5,18.5C 40.791,18.2627 41.791,18.596 42.5,19.5 Z"/></g>
<g><path style="opacity:1" fill="#191514" d="M 55.5,21.5 C 57.5069,17.4849 58.8403,17.8182 59.5,22.5C 59.5,23.1667 59.1667,23.5 58.5,23.5C 55.5,23.5 52.5,23.5 49.5,23.5C 49.2839,14.5674 50.4506,13.9007 53,21.5C 53.9772,22.7736 54.8106,22.7736 55.5,21.5 Z M 55.5,21.5 C 55.4827,19.9719 54.816,19.4719 53.5,20C 54.0442,20.7172 54.7109,21.2172 55.5,21.5 Z"/></g>
<g><path style="opacity:0.969" fill="#a5a2a1" d="M 81.5,16.5 C 81.5,16.8333 81.5,17.1667 81.5,17.5C 79.1432,17.3367 76.8098,17.5034 74.5,18C 81.1667,18.6667 81.1667,19.3333 74.5,20C 73.244,20.4169 72.5774,21.2502 72.5,22.5C 71.609,23.1098 70.609,23.4431 69.5,23.5C 67.9581,22.8365 66.2914,22.1698 64.5,21.5C 68.3605,20.4024 68.3605,19.5691 64.5,19C 67.0907,18.5387 69.2573,19.3721 71,21.5C 71.4643,20.9056 71.631,20.2389 71.5,19.5C 72.2389,19.631 72.9056,19.4643 73.5,19C 72.1667,18.3333 72.1667,17.6667 73.5,17C 76.146,16.5026 78.8127,16.3359 81.5,16.5 Z"/></g>
<g><path style="opacity:1" fill="#2c2827" d="M 87.5,17.5 C 88.1667,17.5 88.8333,17.5 89.5,17.5C 91.288,17.2148 92.9547,17.5481 94.5,18.5C 92.8905,18.4069 91.2238,18.7402 89.5,19.5C 88.596,20.209 88.2627,21.209 88.5,22.5C 90.4672,22.7394 92.3005,22.4061 94,21.5C 94.4643,22.0944 94.631,22.7611 94.5,23.5C 93.209,23.2627 92.209,23.596 91.5,24.5C 91.1667,24.5 90.8333,24.5 90.5,24.5C 89.5,24.5 88.5,24.5 87.5,24.5C 87.44,23.9569 87.1067,23.6236 86.5,23.5C 85.6376,24.7658 84.9709,26.0992 84.5,27.5C 83.6618,27.1583 83.3284,26.4916 83.5,25.5C 84.2679,23.2854 84.9346,20.9521 85.5,18.5C 85.8417,17.6618 86.5084,17.3284 87.5,17.5 Z"/></g>
<g><path style="opacity:0.996" fill="#292014" d="M 101.5,17.5 C 105.908,17.062 107.575,19.062 106.5,23.5C 105.5,23.5 104.5,23.5 103.5,23.5C 103.5,22.1667 103.5,20.8333 103.5,19.5C 102.167,19.5 100.833,19.5 99.5,19.5C 99.7678,21.099 99.4345,22.4324 98.5,23.5C 96.631,21.3647 95.9644,18.6981 96.5,15.5C 98.3224,15.8308 99.9891,16.4975 101.5,17.5 Z"/></g>
<g><path style="opacity:1" fill="#f7ca16" d="M 127.5,15.5 C 128.117,15.3893 128.617,15.056 129,14.5C 129.662,16.8127 130.162,19.146 130.5,21.5C 133.278,21.0217 135.278,22.0217 136.5,24.5C 135.833,25.1667 135.167,25.8333 134.5,26.5C 137.28,30.0502 138.114,34.0502 137,38.5C 136.667,38.1667 136.333,37.8333 136,37.5C 131.335,38.7391 131.502,39.5724 136.5,40C 135.207,40.49 133.873,40.6567 132.5,40.5C 133.783,43.4898 133.783,46.1565 132.5,48.5C 128.57,49.5472 127.07,51.8806 128,55.5C 125.904,57.2658 123.571,58.5991 121,59.5C 119.647,58.3147 118.48,56.9814 117.5,55.5C 116.808,56.0253 116.308,56.6919 116,57.5C 115.819,54.3054 115.319,51.3054 114.5,48.5C 109.384,52.0466 103.717,54.5466 97.5,56C 89.4794,56.8359 81.4794,57.8359 73.5,59C 64.5,64 55.5,69 46.5,74C 35.5012,73.9609 24.5012,73.9609 13.5,74C 9.73009,74.7217 6.39676,76.2217 3.5,78.5C 3.16667,78.5 2.83333,78.5 2.5,78.5C 1.38705,77.0536 1.22039,75.3869 2,73.5C 3.65161,72.6006 5.15161,71.6006 6.5,70.5C 14.7996,69.6287 23.1329,69.2953 31.5,69.5C 35.5,69.5 39.5,69.5 43.5,69.5C 47.836,69.1631 51.5026,67.4965 54.5,64.5C 58.3918,62.9379 61.7251,60.6046 64.5,57.5C 67.3399,55.0849 70.6733,53.7516 74.5,53.5C 81.8604,53.4422 89.1937,52.9422 96.5,52C 99.0254,51.5762 101.025,50.4095 102.5,48.5C 103.808,47.7677 105.142,46.9344 106.5,46C 102.999,45.9043 99.6657,46.4043 96.5,47.5C 94.5,47.5 92.5,47.5 90.5,47.5C 88.1432,47.6633 85.8098,47.4966 83.5,47C 87.2721,45.6107 87.2721,44.6107 83.5,44C 85.7078,43.8091 87.7078,43.3091 89.5,42.5C 92.3973,41.871 95.064,40.871 97.5,39.5C 100.678,37.9914 104.011,36.658 107.5,35.5C 110.133,34.1889 110.133,32.6889 107.5,31C 111.5,30 111.5,29 107.5,28C 108.328,27.0853 109.328,26.4186 110.5,26C 108.604,24.1917 108.104,22.025 109,19.5C 109.667,22.1667 110.333,22.1667 111,19.5C 111.718,20.4506 112.551,20.6172 113.5,20C 115.771,18.257 117.437,16.0903 118.5,13.5C 120.247,12.0193 121.414,10.0193 122,7.5C 122.333,9.83333 122.667,12.1667 123,14.5C 124.145,12.0742 125.478,9.7409 127,7.5C 127.009,10.3692 127.176,13.0359 127.5,15.5 Z"/></g>
<g><path style="opacity:1" fill="#1e1a19" d="M 33.5,17.5 C 34.1667,17.5 34.5,17.8333 34.5,18.5C 34.5,20.1667 34.5,21.8333 34.5,23.5C 33.5,23.5 32.5,23.5 31.5,23.5C 31.7678,21.901 31.4345,20.5676 30.5,19.5C 29.8333,19.5 29.1667,19.5 28.5,19.5C 27.5655,20.5676 27.2322,21.901 27.5,23.5C 26.5,23.5 25.5,23.5 24.5,23.5C 24.5,21.5 24.5,19.5 24.5,17.5C 27.5,17.5 30.5,17.5 33.5,17.5 Z"/></g>
<g><path style="opacity:1" fill="#2c2a29" d="M 8.5,21.5 C 9.5,21.5 10.5,21.5 11.5,21.5C 11.5,20.5 11.5,19.5 11.5,18.5C 12.1667,18.1667 12.8333,17.8333 13.5,17.5C 14.552,17.3505 15.552,17.5172 16.5,18C 15.2089,19.2917 15.2089,20.4583 16.5,21.5C 17.2625,22.2679 18.2625,22.7679 19.5,23C 17.8659,23.4935 16.1992,23.6602 14.5,23.5C 11.3776,23.2805 8.04422,23.2805 4.5,23.5C 4.5,20.8333 4.5,18.1667 4.5,15.5C 5.5,15.5 6.5,15.5 7.5,15.5C 7.20528,17.7354 7.53862,19.7354 8.5,21.5 Z"/></g>
<g><path style="opacity:1" fill="#201c1c" d="M 81.5,17.5 C 82.1667,17.5 82.8333,17.5 83.5,17.5C 83.5,17.8333 83.5,18.1667 83.5,18.5C 83.5,20.1667 83.5,21.8333 83.5,23.5C 79.7307,23.756 76.0641,23.4227 72.5,22.5C 72.5774,21.2502 73.244,20.4169 74.5,20C 81.1667,19.3333 81.1667,18.6667 74.5,18C 76.8098,17.5034 79.1432,17.3367 81.5,17.5 Z"/></g>
<g><path style="opacity:0.949" fill="#676564" d="M 19.5,15.5 C 20.5,16.1667 21.5,16.8333 22.5,17.5C 23.8333,19.1667 23.8333,20.8333 22.5,22.5C 22.1667,23.1667 21.8333,23.8333 21.5,24.5C 19.1667,24.5 16.8333,24.5 14.5,24.5C 14.5,24.1667 14.5,23.8333 14.5,23.5C 16.1992,23.6602 17.8659,23.4935 19.5,23C 18.2625,22.7679 17.2625,22.2679 16.5,21.5C 15.2089,20.4583 15.2089,19.2917 16.5,18C 15.552,17.5172 14.552,17.3505 13.5,17.5C 15.2143,16.2616 17.2143,15.595 19.5,15.5 Z M 17.5,19.5 C 17.8333,20.8333 18.1667,20.8333 18.5,19.5C 19.0431,19.56 19.3764,19.8933 19.5,20.5C 18.675,21.3857 17.675,21.719 16.5,21.5C 16.3284,20.5084 16.6618,19.8417 17.5,19.5 Z"/></g>
<g><path style="opacity:0.918" fill="#f3eab7" d="M 141.5,16.5 C 142.5,16.5 143.5,16.5 144.5,16.5C 145.906,16.9731 146.573,17.9731 146.5,19.5C 147.674,20.5137 148.34,21.847 148.5,23.5C 146.973,23.427 145.973,24.0937 145.5,25.5C 144.833,25.5 144.167,25.5 143.5,25.5C 143.53,24.5028 143.03,23.8361 142,23.5C 137.029,25.042 136.529,24.3754 140.5,21.5C 140,21.1667 139.5,20.8333 139,20.5C 137.838,21.1868 136.672,21.3534 135.5,21C 136.705,19.6244 138.038,18.4577 139.5,17.5C 139.833,18.8333 140.167,18.8333 140.5,17.5C 141.167,17.5 141.5,17.1667 141.5,16.5 Z M 146.5,19.5 C 145.828,20.2674 144.995,20.9341 144,21.5C 143.812,19.9387 144.645,19.272 146.5,19.5 Z"/></g>
<g><path style="opacity:0.149" fill="#d7d5d5" d="M 37.5,17.5 C 35.4686,19.2492 35.1353,21.2492 36.5,23.5C 35.8333,23.5 35.5,23.8333 35.5,24.5C 33.8333,24.5 32.1667,24.5 30.5,24.5C 30.5,22.8333 30.5,21.1667 30.5,19.5C 31.4345,20.5676 31.7678,21.901 31.5,23.5C 32.5,23.5 33.5,23.5 34.5,23.5C 34.5,21.8333 34.5,20.1667 34.5,18.5C 35.391,17.8902 36.391,17.5569 37.5,17.5 Z"/></g>
<g><path style="opacity:0.443" fill="#bebdbe" d="M 83.5,18.5 C 84.1667,18.5 84.8333,18.5 85.5,18.5C 84.9346,20.9521 84.2679,23.2854 83.5,25.5C 79.5575,25.1254 75.8909,24.1254 72.5,22.5C 76.0641,23.4227 79.7307,23.756 83.5,23.5C 83.5,21.8333 83.5,20.1667 83.5,18.5 Z"/></g>
<g><path style="opacity:0.01" fill="#121213" d="M 14.5,24.5 C 16.8333,25.8333 19.1667,25.8333 21.5,24.5C 22.1667,24.5 22.8333,24.5 23.5,24.5C 26.977,25.3227 30.6437,25.8227 34.5,26C 23.8385,26.4998 13.1719,26.6665 2.5,26.5C 6.35774,25.7063 10.3577,25.0397 14.5,24.5 Z"/></g>
<g><path style="opacity:0.012" fill="#0f0f10" d="M 58.5,24.5 C 66.1402,25.3859 74.1402,25.7192 82.5,25.5C 82.5,25.8333 82.5,26.1667 82.5,26.5C 70.8333,26.5 59.1667,26.5 47.5,26.5C 47.5,26.1667 47.5,25.8333 47.5,25.5C 51.3714,25.815 55.0381,25.4816 58.5,24.5 Z"/></g>
<g><path style="opacity:0.427" fill="#f3f5d6" d="M 87.5,24.5 C 87.7428,25.7689 88.7428,25.7689 90.5,24.5C 90.8333,24.5 91.1667,24.5 91.5,24.5C 92.8333,25.1667 93.8333,26.1667 94.5,27.5C 94.1667,27.5 93.8333,27.5 93.5,27.5C 90.5,27.5 87.5,27.5 84.5,27.5C 84.9709,26.0992 85.6376,24.7658 86.5,23.5C 87.1067,23.6236 87.44,23.9569 87.5,24.5 Z"/></g>
<g><path style="opacity:0.008" fill="#7d838d" d="M 153.5,28.5 C 153.351,27.448 153.517,26.448 154,25.5C 154.74,26.7494 154.573,27.7494 153.5,28.5 Z"/></g>
<g><path style="opacity:0.573" fill="#4f6073" d="M 82.5,25.5 C 82.8333,25.5 83.1667,25.5 83.5,25.5C 83.3284,26.4916 83.6618,27.1583 84.5,27.5C 87.5,27.5 90.5,27.5 93.5,27.5C 90.4371,28.2014 87.2704,28.868 84,29.5C 56.5741,28.505 29.0741,28.1716 1.5,28.5C 1.5,27.8333 1.83333,27.5 2.5,27.5C 29.3386,27.8312 56.0052,27.4979 82.5,26.5C 82.5,26.1667 82.5,25.8333 82.5,25.5 Z"/></g>
<g><path style="opacity:0.996" fill="#69612f" d="M 94.5,27.5 C 97.1873,27.3359 99.854,27.5026 102.5,28C 101.956,28.7172 101.289,29.2172 100.5,29.5C 98.5,28.8333 96.5,28.1667 94.5,27.5 Z"/></g>
<g><path style="opacity:0.514" fill="#656d7b" d="M 114.5,0.5 C 116.833,0.5 119.167,0.5 121.5,0.5C 126.562,1.68933 131.562,3.356 136.5,5.5C 138.142,6.80299 139.809,8.13632 141.5,9.5C 147.178,14.83 151.178,21.1633 153.5,28.5C 153.198,31.0593 153.532,33.3926 154.5,35.5C 153.648,39.7936 152.982,44.127 152.5,48.5C 150.659,50.8485 149.326,53.5152 148.5,56.5C 147.833,56.5 147.5,56.8333 147.5,57.5C 146.833,58.8333 146.167,60.1667 145.5,61.5C 145.167,60.1667 144.833,60.1667 144.5,61.5C 143.833,61.5 143.5,61.8333 143.5,62.5C 142.833,62.5 142.5,62.8333 142.5,63.5C 141.833,63.5 141.5,63.8333 141.5,64.5C 140.833,64.5 140.5,64.8333 140.5,65.5C 139.508,65.3284 138.842,65.6618 138.5,66.5C 137.833,66.5 137.5,66.8333 137.5,67.5C 136.508,67.3284 135.842,67.6618 135.5,68.5C 133.847,68.6596 132.514,69.3263 131.5,70.5C 129.5,70.8333 127.5,71.1667 125.5,71.5C 121.833,71.5 118.167,71.5 114.5,71.5C 114.5,70.8333 114.833,70.5 115.5,70.5C 115.833,70.5 116.167,70.5 116.5,70.5C 119.059,70.8016 121.393,70.4682 123.5,69.5C 124.5,69.5 125.5,69.5 126.5,69.5C 128.403,69.2041 130.07,68.5375 131.5,67.5C 133.153,67.3404 134.486,66.6737 135.5,65.5C 137.23,64.9744 138.564,63.9744 139.5,62.5C 141.167,61.5 142.5,60.1667 143.5,58.5C 144.974,57.5637 145.974,56.2303 146.5,54.5C 147.674,53.4863 148.34,52.153 148.5,50.5C 149.537,49.0697 150.204,47.403 150.5,45.5C 150.5,44.8333 150.5,44.1667 150.5,43.5C 151.404,42.791 151.737,41.791 151.5,40.5C 151.5,39.8333 151.5,39.1667 151.5,38.5C 151.5,37.5 151.5,36.5 151.5,35.5C 151.5,34.8333 151.5,34.1667 151.5,33.5C 151.737,32.209 151.404,31.209 150.5,30.5C 150.5,29.5 150.5,28.5 150.5,27.5C 150.672,26.5084 150.338,25.8417 149.5,25.5C 149.167,24.8333 148.833,24.1667 148.5,23.5C 148.34,21.847 147.674,20.5137 146.5,19.5C 146.573,17.9731 145.906,16.9731 144.5,16.5C 143.833,15.8333 143.167,15.1667 142.5,14.5C 141.833,13.1667 140.833,12.1667 139.5,11.5C 139.5,10.8333 139.167,10.5 138.5,10.5C 138.027,9.09368 137.027,8.42702 135.5,8.5C 134.833,8.5 134.5,8.83333 134.5,9.5C 134.167,9.5 133.833,9.5 133.5,9.5C 133.715,7.82124 133.048,6.82124 131.5,6.5C 130.833,6.16667 130.167,5.83333 129.5,5.5C 129.158,4.66175 128.492,4.32842 127.5,4.5C 126.833,4.5 126.167,4.5 125.5,4.5C 124.432,3.56552 123.099,3.23219 121.5,3.5C 120.5,3.5 119.5,3.5 118.5,3.5C 117.833,3.5 117.167,3.5 116.5,3.5C 115.5,3.5 114.5,3.5 113.5,3.5C 111.901,3.23219 110.568,3.56552 109.5,4.5C 108.209,4.26269 107.209,4.59603 106.5,5.5C 105.833,5.5 105.167,5.5 104.5,5.5C 103.29,5.93205 102.29,6.59872 101.5,7.5C 100.29,7.93205 99.2905,8.59872 98.5,9.5C 97.5084,9.32842 96.8417,9.66175 96.5,10.5C 96.5,11.1667 96.1667,11.5 95.5,11.5C 94.1667,12.1667 93.1667,13.1667 92.5,14.5C 92.5,15.1667 92.1667,15.5 91.5,15.5C 90.5,15.8333 89.8333,16.5 89.5,17.5C 88.8333,17.5 88.1667,17.5 87.5,17.5C 87.5,17.1667 87.5,16.8333 87.5,16.5C 90.5,12.8333 93.8333,9.5 97.5,6.5C 100.205,5.14728 102.872,3.81395 105.5,2.5C 108.689,2.14166 111.689,1.47499 114.5,0.5 Z M 142.5,14.5 C 143.167,15.1667 143.833,15.8333 144.5,16.5C 143.5,16.5 142.5,16.5 141.5,16.5C 141.328,15.5084 141.662,14.8417 142.5,14.5 Z M 92.5,14.5 C 93.7733,15.0768 93.7733,15.7435 92.5,16.5C 91.8933,16.3764 91.56,16.0431 91.5,15.5C 92.1667,15.5 92.5,15.1667 92.5,14.5 Z M 138.5,10.5 C 139.167,10.5 139.5,10.8333 139.5,11.5C 139.5,12.8333 138.833,13.5 137.5,13.5C 137.557,12.391 137.89,11.391 138.5,10.5 Z M 96.5,10.5 C 97.404,11.209 97.7373,12.209 97.5,13.5C 96.5,13.1667 95.8333,12.5 95.5,11.5C 96.1667,11.5 96.5,11.1667 96.5,10.5 Z M 101.5,7.5 C 101.5,8.5 101.5,9.5 101.5,10.5C 100.609,9.89022 99.609,9.55688 98.5,9.5C 99.2905,8.59872 100.29,7.93205 101.5,7.5 Z M 129.5,5.5 C 130.167,5.83333 130.833,6.16667 131.5,6.5C 131.167,7.5 130.5,8.16667 129.5,8.5C 129.5,7.5 129.5,6.5 129.5,5.5 Z M 104.5,5.5 C 105.167,5.5 105.833,5.5 106.5,5.5C 105.811,6.70722 105.645,8.04055 106,9.5C 105.617,8.94404 105.117,8.61071 104.5,8.5C 104.5,7.5 104.5,6.5 104.5,5.5 Z M 125.5,4.5 C 126.167,4.5 126.833,4.5 127.5,4.5C 126.313,5.53365 125.48,6.86698 125,8.5C 124.235,6.93426 124.402,5.60093 125.5,4.5 Z M 109.5,4.5 C 110.239,4.36899 110.906,4.53566 111.5,5C 110.748,5.67076 110.414,6.5041 110.5,7.5C 110.167,7.5 109.833,7.5 109.5,7.5C 109.5,6.5 109.5,5.5 109.5,4.5 Z M 118.5,3.5 C 119.5,3.5 120.5,3.5 121.5,3.5C 120.492,10.1344 119.492,10.1344 118.5,3.5 Z M 113.5,3.5 C 114.5,3.5 115.5,3.5 116.5,3.5C 115.976,5.3057 115.309,6.97237 114.5,8.5C 114.634,6.70848 114.301,5.04181 113.5,3.5 Z"/></g>
<g><path style="opacity:0.639" fill="#faf3c4" d="M 116.5,3.5 C 117.167,3.5 117.833,3.5 118.5,3.5C 119.492,10.1344 120.492,10.1344 121.5,3.5C 123.099,3.23219 124.432,3.56552 125.5,4.5C 124.402,5.60093 124.235,6.93426 125,8.5C 125.48,6.86698 126.313,5.53365 127.5,4.5C 128.492,4.32842 129.158,4.66175 129.5,5.5C 129.5,6.5 129.5,7.5 129.5,8.5C 128.167,9.16667 128.167,9.83333 129.5,10.5C 128.833,12.1667 128.167,13.8333 127.5,15.5C 127.176,13.0359 127.009,10.3692 127,7.5C 125.478,9.7409 124.145,12.0742 123,14.5C 122.667,12.1667 122.333,9.83333 122,7.5C 121.414,10.0193 120.247,12.0193 118.5,13.5C 117.991,2.85341 117.158,2.85341 116,13.5C 114.731,12.0953 114.231,10.4286 114.5,8.5C 115.309,6.97237 115.976,5.3057 116.5,3.5 Z M 125.5,4.5 C 126.167,4.5 126.833,4.5 127.5,4.5C 126.313,5.53365 125.48,6.86698 125,8.5C 124.235,6.93426 124.402,5.60093 125.5,4.5 Z M 118.5,3.5 C 119.5,3.5 120.5,3.5 121.5,3.5C 120.492,10.1344 119.492,10.1344 118.5,3.5 Z"/></g>
<g><path style="opacity:0.142" fill="#fbfbea" d="M 109.5,4.5 C 109.5,5.5 109.5,6.5 109.5,7.5C 108.883,7.38929 108.383,7.05596 108,6.5C 107.667,8.5 107.333,10.5 107,12.5C 105.519,11.5291 104.685,10.1958 104.5,8.5C 105.117,8.61071 105.617,8.94404 106,9.5C 105.645,8.04055 105.811,6.70722 106.5,5.5C 107.209,4.59603 108.209,4.26269 109.5,4.5 Z"/></g>
<g><path style="opacity:0.733" fill="#fbf7cd" d="M 109.5,4.5 C 110.568,3.56552 111.901,3.23219 113.5,3.5C 114.301,5.04181 114.634,6.70848 114.5,8.5C 113.732,7.73747 113.232,6.73747 113,5.5C 112.667,8.5 112.333,11.5 112,14.5C 110.991,12.9751 110.491,11.3084 110.5,9.5C 111.833,8.83333 111.833,8.16667 110.5,7.5C 110.414,6.5041 110.748,5.67076 111.5,5C 110.906,4.53566 110.239,4.36899 109.5,4.5 Z"/></g>
<g><path style="opacity:0.21" fill="#fcfef6" d="M 104.5,5.5 C 104.5,6.5 104.5,7.5 104.5,8.5C 102.797,7.33985 102.131,8.00651 102.5,10.5C 102.167,10.5 101.833,10.5 101.5,10.5C 101.5,9.5 101.5,8.5 101.5,7.5C 102.29,6.59872 103.29,5.93205 104.5,5.5 Z"/></g>
<g><path style="opacity:0.999" fill="#0c2549" d="M 93.5,27.5 C 93.8333,27.5 94.1667,27.5 94.5,27.5C 96.5,28.1667 98.5,28.8333 100.5,29.5C 88.6146,32.5366 76.6146,35.0366 64.5,37C 59.4936,39.5013 54.8269,42.5013 50.5,46C 39.8451,52.0293 28.6784,53.1959 17,49.5C 11.7227,49.4465 6.55604,50.1131 1.5,51.5C 1.5,43.8333 1.5,36.1667 1.5,28.5C 29.0741,28.1716 56.5741,28.505 84,29.5C 87.2704,28.868 90.4371,28.2014 93.5,27.5 Z"/></g>
<g><path style="opacity:0.584" fill="#fbf6cb" d="M 143.5,25.5 C 144.167,26.8333 144.833,26.8333 145.5,25.5C 146.833,25.5 148.167,25.5 149.5,25.5C 150.338,25.8417 150.672,26.5084 150.5,27.5C 149.118,28.8005 147.452,29.6339 145.5,30C 147.134,30.4935 148.801,30.6602 150.5,30.5C 151.404,31.209 151.737,32.209 151.5,33.5C 150.5,33.5 149.5,33.5 148.5,33.5C 148.611,32.8826 148.944,32.3826 149.5,32C 146.5,31.6667 143.5,31.3333 140.5,31C 148.11,27.7084 147.443,26.7084 138.5,28C 139.91,26.6283 141.577,25.795 143.5,25.5 Z"/></g>
<g><path style="opacity:0.008" fill="#2f3446" d="M 155.5,29.5 C 155.5,31.5 155.5,33.5 155.5,35.5C 155.167,35.5 154.833,35.5 154.5,35.5C 154.205,33.2646 154.539,31.2646 155.5,29.5 Z"/></g>
<g><path style="opacity:0.267" fill="#fefce5" d="M 96.5,37.5 C 94.5648,38.1495 92.5648,38.4828 90.5,38.5C 92.32,36.5389 94.32,36.2056 96.5,37.5 Z"/></g>
<g><path style="opacity:1" fill="#f2cc2d" d="M 139.5,17.5 C 138.038,18.4577 136.705,19.6244 135.5,21C 136.672,21.3534 137.838,21.1868 139,20.5C 139.5,20.8333 140,21.1667 140.5,21.5C 136.529,24.3754 137.029,25.042 142,23.5C 143.03,23.8361 143.53,24.5028 143.5,25.5C 141.577,25.795 139.91,26.6283 138.5,28C 147.443,26.7084 148.11,27.7084 140.5,31C 143.5,31.3333 146.5,31.6667 149.5,32C 148.944,32.3826 148.611,32.8826 148.5,33.5C 148.167,33.5 147.833,33.5 147.5,33.5C 145.712,33.2148 144.045,33.5481 142.5,34.5C 144.966,35.1235 147.299,35.9568 149.5,37C 148.263,37.2321 147.263,37.7321 146.5,38.5C 145.127,38.3433 143.793,38.51 142.5,39C 144.044,39.2896 145.377,39.9563 146.5,41C 144.5,41.3333 142.5,41.6667 140.5,42C 142.67,43.5862 145.004,44.9196 147.5,46C 144.8,46.2532 142.133,46.2532 139.5,46C 140.693,47.0946 142.027,47.928 143.5,48.5C 143.611,49.1174 143.944,49.6174 144.5,50C 136.831,48.8439 136.498,50.0106 143.5,53.5C 143.5,54.8333 142.833,55.5 141.5,55.5C 140.508,55.3284 139.842,55.6618 139.5,56.5C 139.5,57.8333 138.833,58.5 137.5,58.5C 136.438,56.2435 134.772,55.0768 132.5,55C 134.661,57.1487 135.828,59.6487 136,62.5C 134.333,60.8333 132.667,59.1667 131,57.5C 130.797,59.3908 131.297,61.0575 132.5,62.5C 132.869,64.9935 132.203,65.6602 130.5,64.5C 130.315,62.8042 129.481,61.4709 128,60.5C 127.667,62.5 127.333,64.5 127,66.5C 123.92,57.6556 122.253,57.6556 122,66.5C 121.722,65.5842 121.222,64.9175 120.5,64.5C 120.762,63.0222 120.429,61.6888 119.5,60.5C 118.686,62.7662 118.186,65.0995 118,67.5C 117.257,64.8079 116.09,62.4746 114.5,60.5C 114.5,56.5 114.5,52.5 114.5,48.5C 115.319,51.3054 115.819,54.3054 116,57.5C 116.308,56.6919 116.808,56.0253 117.5,55.5C 118.48,56.9814 119.647,58.3147 121,59.5C 123.571,58.5991 125.904,57.2658 128,55.5C 127.07,51.8806 128.57,49.5472 132.5,48.5C 133.783,46.1565 133.783,43.4898 132.5,40.5C 133.873,40.6567 135.207,40.49 136.5,40C 131.502,39.5724 131.335,38.7391 136,37.5C 136.333,37.8333 136.667,38.1667 137,38.5C 138.114,34.0502 137.28,30.0502 134.5,26.5C 135.167,25.8333 135.833,25.1667 136.5,24.5C 135.278,22.0217 133.278,21.0217 130.5,21.5C 130.162,19.146 129.662,16.8127 129,14.5C 128.617,15.056 128.117,15.3893 127.5,15.5C 128.167,13.8333 128.833,12.1667 129.5,10.5C 130.458,10.0472 131.292,9.38053 132,8.5C 132.167,8.83333 132.333,9.16667 132.5,9.5C 129.3,16.6473 130.133,17.6473 135,12.5C 134.667,14.5 134.333,16.5 134,18.5C 135.973,17.3601 137.807,16.0267 139.5,14.5C 140.087,15.2334 140.087,16.2334 139.5,17.5 Z"/></g>
<g><path style="opacity:0.241" fill="#fcfbea" d="M 147.5,33.5 C 148.671,34.3446 150.005,35.0113 151.5,35.5C 151.5,36.5 151.5,37.5 151.5,38.5C 149.833,38.5 148.167,38.5 146.5,38.5C 147.263,37.7321 148.263,37.2321 149.5,37C 147.299,35.9568 144.966,35.1235 142.5,34.5C 144.045,33.5481 145.712,33.2148 147.5,33.5 Z"/></g>
<g><path style="opacity:0.266" fill="#f7f1d2" d="M 146.5,38.5 C 147.93,39.5375 149.597,40.2041 151.5,40.5C 151.737,41.791 151.404,42.791 150.5,43.5C 145.36,43.5835 145.36,44.2502 150.5,45.5C 150.204,47.403 149.537,49.0697 148.5,50.5C 148.5,49.1667 147.833,48.5 146.5,48.5C 145.5,47.1667 144.5,47.1667 143.5,48.5C 142.027,47.928 140.693,47.0946 139.5,46C 142.133,46.2532 144.8,46.2532 147.5,46C 145.004,44.9196 142.67,43.5862 140.5,42C 142.5,41.6667 144.5,41.3333 146.5,41C 145.377,39.9563 144.044,39.2896 142.5,39C 143.793,38.51 145.127,38.3433 146.5,38.5 Z"/></g>
<g><path style="opacity:0.008" fill="#6b717f" d="M 155.5,38.5 C 155.5,40.5 155.5,42.5 155.5,44.5C 154.167,42.5 154.167,40.5 155.5,38.5 Z"/></g>
<g><path style="opacity:0.949" fill="#faf1c9" d="M 97.5,39.5 C 95.064,40.871 92.3973,41.871 89.5,42.5C 82.1531,43.0362 74.8198,43.7029 67.5,44.5C 77.2689,42.2385 87.2689,40.5719 97.5,39.5 Z"/></g>
<g><path style="opacity:0.167" fill="#f3f1e0" d="M 67.5,44.5 C 64.4338,46.8899 61.1004,48.8899 57.5,50.5C 60.069,47.2719 63.4023,45.2719 67.5,44.5 Z"/></g>
<g><path style="opacity:0.008" fill="#90969e" d="M 153.5,48.5 C 153.351,47.448 153.517,46.448 154,45.5C 154.74,46.7494 154.573,47.7494 153.5,48.5 Z"/></g>
<g><path style="opacity:0.327" fill="#eff1e8" d="M 90.5,47.5 C 92.5,47.5 94.5,47.5 96.5,47.5C 88.4114,49.5531 80.0781,50.8864 71.5,51.5C 71.9175,50.7784 72.5842,50.2784 73.5,50C 79.3844,49.6848 85.0511,48.8515 90.5,47.5 Z"/></g>
<g><path style="opacity:0.004" fill="#80878d" d="M 152.5,48.5 C 152.833,48.5 153.167,48.5 153.5,48.5C 153.167,51.1667 152.833,51.1667 152.5,48.5 Z"/></g>
<g><path style="opacity:0.212" fill="#f8f7e0" d="M 89.5,38.5 C 81.4835,39.1985 73.4835,40.6985 65.5,43C 58.4639,47.8508 51.1306,52.1841 43.5,56C 36.9995,57.7901 30.6662,57.6235 24.5,55.5C 30.5092,55.6662 36.5092,55.4995 42.5,55C 51.4518,50.3563 60.1185,45.3563 68.5,40C 75.4264,38.661 82.4264,38.161 89.5,38.5 Z"/></g>
<g><path style="opacity:0.984" fill="#f1edca" d="M 143.5,48.5 C 144.5,48.5 145.5,48.5 146.5,48.5C 147.833,48.5 148.5,49.1667 148.5,50.5C 148.34,52.153 147.674,53.4863 146.5,54.5C 146.158,53.6618 145.492,53.3284 144.5,53.5C 144.167,52.1667 143.833,52.1667 143.5,53.5C 136.498,50.0106 136.831,48.8439 144.5,50C 143.944,49.6174 143.611,49.1174 143.5,48.5 Z"/></g>
<g><path style="opacity:1" fill="#f8ebb6" d="M 102.5,48.5 C 101.025,50.4095 99.0254,51.5762 96.5,52C 89.1937,52.9422 81.8604,53.4422 74.5,53.5C 83.7373,52.0054 93.0707,50.3388 102.5,48.5 Z"/></g>
<g><path style="opacity:0.008" fill="#a0adbb" d="M 151.5,51.5 C 152.833,52.1667 152.833,52.1667 151.5,51.5 Z"/></g>
<g><path style="opacity:0.995" fill="#f1ca29" d="M 114.5,8.5 C 114.231,10.4286 114.731,12.0953 116,13.5C 117.158,2.85341 117.991,2.85341 118.5,13.5C 117.437,16.0903 115.771,18.257 113.5,20C 112.551,20.6172 111.718,20.4506 111,19.5C 110.333,22.1667 109.667,22.1667 109,19.5C 108.104,22.025 108.604,24.1917 110.5,26C 109.328,26.4186 108.328,27.0853 107.5,28C 111.5,29 111.5,30 107.5,31C 110.133,32.6889 110.133,34.1889 107.5,35.5C 108.463,34.6365 108.463,33.9698 107.5,33.5C 104.104,35.6315 100.437,36.9649 96.5,37.5C 94.32,36.2056 92.32,36.5389 90.5,38.5C 90.1667,38.5 89.8333,38.5 89.5,38.5C 82.4264,38.161 75.4264,38.661 68.5,40C 60.1185,45.3563 51.4518,50.3563 42.5,55C 36.5092,55.4995 30.5092,55.6662 24.5,55.5C 19.5,54.1667 14.5,54.1667 9.5,55.5C 7.07994,55.2924 4.7466,55.6258 2.5,56.5C 1.54811,54.9547 1.21478,53.288 1.5,51.5C 6.55604,50.1131 11.7227,49.4465 17,49.5C 28.6784,53.1959 39.8451,52.0293 50.5,46C 54.8269,42.5013 59.4936,39.5013 64.5,37C 76.6146,35.0366 88.6146,32.5366 100.5,29.5C 101.289,29.2172 101.956,28.7172 102.5,28C 99.854,27.5026 97.1873,27.3359 94.5,27.5C 93.8333,26.1667 92.8333,25.1667 91.5,24.5C 92.209,23.596 93.209,23.2627 94.5,23.5C 95.8333,24.8333 97.1667,24.8333 98.5,23.5C 99.4345,22.4324 99.7678,21.099 99.5,19.5C 100.833,19.5 102.167,19.5 103.5,19.5C 103.5,20.8333 103.5,22.1667 103.5,23.5C 104.5,23.5 105.5,23.5 106.5,23.5C 107.575,19.062 105.908,17.062 101.5,17.5C 100.054,15.2965 99.2204,12.9631 99,10.5C 99.7083,11.3805 100.542,12.0472 101.5,12.5C 102.122,13.6266 102.955,14.6266 104,15.5C 104.599,13.4652 104.099,11.7985 102.5,10.5C 102.131,8.00651 102.797,7.33985 104.5,8.5C 104.685,10.1958 105.519,11.5291 107,12.5C 107.333,10.5 107.667,8.5 108,6.5C 108.383,7.05596 108.883,7.38929 109.5,7.5C 109.833,7.5 110.167,7.5 110.5,7.5C 110.5,8.16667 110.5,8.83333 110.5,9.5C 110.491,11.3084 110.991,12.9751 112,14.5C 112.333,11.5 112.667,8.5 113,5.5C 113.232,6.73747 113.732,7.73747 114.5,8.5 Z"/></g>
<g><path style="opacity:0.133" fill="#fffeec" d="M 102.5,10.5 C 104.099,11.7985 104.599,13.4652 104,15.5C 102.955,14.6266 102.122,13.6266 101.5,12.5C 102.338,12.1583 102.672,11.4916 102.5,10.5 Z"/></g>
<g><path style="opacity:0.204" fill="#fdfae7" d="M 71.5,51.5 C 67.5388,53.4806 63.5388,55.4806 59.5,57.5C 62.3887,53.3889 66.3887,51.3889 71.5,51.5 Z"/></g>
<g><path style="opacity:0.765" fill="#f5f5d8" d="M 57.5,50.5 C 56.1979,52.8218 54.1979,54.1551 51.5,54.5C 53.1475,52.6736 55.1475,51.3403 57.5,50.5 Z"/></g>
<g><path style="opacity:0.004" fill="#8794a1" d="M 150.5,53.5 C 151.833,54.1667 151.833,54.1667 150.5,53.5 Z"/></g>
<g><path style="opacity:0.549" fill="#f5f3e2" d="M 143.5,53.5 C 143.833,53.5 144.167,53.5 144.5,53.5C 144.842,54.3382 145.508,54.6716 146.5,54.5C 145.974,56.2303 144.974,57.5637 143.5,58.5C 142.833,57.5 142.167,56.5 141.5,55.5C 142.833,55.5 143.5,54.8333 143.5,53.5 Z"/></g>
<g><path style="opacity:0.004" fill="#f6fffe" d="M 149.5,55.5 C 150.833,56.1667 150.833,56.1667 149.5,55.5 Z"/></g>
<g><path style="opacity:0.576" fill="#4e5866" d="M 107.5,35.5 C 104.011,36.658 100.678,37.9914 97.5,39.5C 87.2689,40.5719 77.2689,42.2385 67.5,44.5C 63.4023,45.2719 60.069,47.2719 57.5,50.5C 55.1475,51.3403 53.1475,52.6736 51.5,54.5C 44.2762,58.0454 36.6095,59.3787 28.5,58.5C 21.8333,58.5 15.1667,58.5 8.5,58.5C 5.92138,58.3939 3.58805,59.0605 1.5,60.5C 1.36912,59.6236 1.70245,58.9569 2.5,58.5C 4.88522,57.3385 7.21855,56.3385 9.5,55.5C 14.5,54.1667 19.5,54.1667 24.5,55.5C 30.6662,57.6235 36.9995,57.7901 43.5,56C 51.1306,52.1841 58.4639,47.8508 65.5,43C 73.4835,40.6985 81.4835,39.1985 89.5,38.5C 89.8333,38.5 90.1667,38.5 90.5,38.5C 92.5648,38.4828 94.5648,38.1495 96.5,37.5C 100.437,36.9649 104.104,35.6315 107.5,33.5C 108.463,33.9698 108.463,34.6365 107.5,35.5 Z"/></g>
<g><path style="opacity:0.008" fill="#404960" d="M 148.5,56.5 C 148.833,56.5 149.167,56.5 149.5,56.5C 149.315,57.1701 148.981,57.1701 148.5,56.5 Z"/></g>
<g><path style="opacity:0.075" fill="#f4f4ec" d="M 2.5,26.5 C 2.5,26.8333 2.5,27.1667 2.5,27.5C 1.83333,27.5 1.5,27.8333 1.5,28.5C 1.5,36.1667 1.5,43.8333 1.5,51.5C 1.21478,53.288 1.54811,54.9547 2.5,56.5C 4.7466,55.6258 7.07994,55.2924 9.5,55.5C 7.21855,56.3385 4.88522,57.3385 2.5,58.5C 1.70245,58.9569 1.36912,59.6236 1.5,60.5C 0.833333,60.5 0.166667,60.5 -0.5,60.5C -0.5,59.8333 -0.5,59.1667 -0.5,58.5C -0.15829,47.6276 0.84171,36.9609 2.5,26.5 Z"/></g>
<g><path style="opacity:1" fill="#f7edb7" d="M 51.5,54.5 C 51.6309,55.3764 51.2975,56.0431 50.5,56.5C 43.2888,60.7319 35.9554,61.3985 28.5,58.5C 36.6095,59.3787 44.2762,58.0454 51.5,54.5 Z"/></g>
<g><path style="opacity:0.263" fill="#f7f8f0" d="M 8.5,58.5 C 6.35105,59.7362 4.01772,60.7362 1.5,61.5C 1.5,61.1667 1.5,60.8333 1.5,60.5C 3.58805,59.0605 5.92138,58.3939 8.5,58.5 Z"/></g>
<g><path style="opacity:0.478" fill="#f4f3df" d="M 64.5,57.5 C 61.7251,60.6046 58.3918,62.9379 54.5,64.5C 57.2749,61.3954 60.6082,59.0621 64.5,57.5 Z"/></g>
<g><path style="opacity:0.867" fill="#f7f3cf" d="M 139.5,56.5 C 140.605,57.6005 141.938,58.2671 143.5,58.5C 142.5,60.1667 141.167,61.5 139.5,62.5C 139.573,60.9731 138.906,59.9731 137.5,59.5C 137.5,59.1667 137.5,58.8333 137.5,58.5C 138.833,58.5 139.5,57.8333 139.5,56.5 Z"/></g>
<g><path style="opacity:0.004" fill="#a2a2a2" d="M 147.5,57.5 C 147.833,57.5 148.167,57.5 148.5,57.5C 148.167,60.1667 147.833,60.1667 147.5,57.5 Z"/></g>
<g><path style="opacity:0.478" fill="#f9f7de" d="M 137.5,58.5 C 136.167,58.8333 136.167,59.1667 137.5,59.5C 137.427,61.0269 138.094,62.0269 139.5,62.5C 138.564,63.9744 137.23,64.9744 135.5,65.5C 135.573,63.9731 134.906,62.9731 133.5,62.5C 133.167,61.1667 132.833,61.1667 132.5,62.5C 131.297,61.0575 130.797,59.3908 131,57.5C 132.667,59.1667 134.333,60.8333 136,62.5C 135.828,59.6487 134.661,57.1487 132.5,55C 134.772,55.0768 136.438,56.2435 137.5,58.5 Z"/></g>
<g><path style="opacity:0.995" fill="#f4ca1e" d="M 89.5,42.5 C 87.7078,43.3091 85.7078,43.8091 83.5,44C 87.2721,44.6107 87.2721,45.6107 83.5,47C 85.8098,47.4966 88.1432,47.6633 90.5,47.5C 85.0511,48.8515 79.3844,49.6848 73.5,50C 72.5842,50.2784 71.9175,50.7784 71.5,51.5C 66.3887,51.3889 62.3887,53.3889 59.5,57.5C 54.7267,60.27 49.7267,62.77 44.5,65C 39.5111,65.4993 34.5111,65.6659 29.5,65.5C 23.1667,64.1667 16.8333,64.1667 10.5,65.5C 7.41209,65.3773 4.74542,66.3773 2.5,68.5C 1.52577,66.2573 1.19244,63.924 1.5,61.5C 4.01772,60.7362 6.35105,59.7362 8.5,58.5C 15.1667,58.5 21.8333,58.5 28.5,58.5C 35.9554,61.3985 43.2888,60.7319 50.5,56.5C 51.2975,56.0431 51.6309,55.3764 51.5,54.5C 54.1979,54.1551 56.1979,52.8218 57.5,50.5C 61.1004,48.8899 64.4338,46.8899 67.5,44.5C 74.8198,43.7029 82.1531,43.0362 89.5,42.5 Z"/></g>
<g><path style="opacity:0.008" fill="#2c3344" d="M 144.5,61.5 C 144.833,61.5 145.167,61.5 145.5,61.5C 145.315,62.1701 144.981,62.1701 144.5,61.5 Z"/></g>
<g><path style="opacity:0.004" fill="#000022" d="M 143.5,62.5 C 143.833,62.5 144.167,62.5 144.5,62.5C 144.315,63.1701 143.981,63.1701 143.5,62.5 Z"/></g>
<g><path style="opacity:0.141" fill="#f4f0d9" d="M 59.5,57.5 C 55.727,61.2271 51.3937,64.2271 46.5,66.5C 46.1667,65.1667 45.8333,65.1667 45.5,66.5C 44.609,67.1098 43.609,67.4431 42.5,67.5C 41.8333,66.1667 41.1667,66.1667 40.5,67.5C 38.5,67.5 36.5,67.5 34.5,67.5C 33.8333,66.1667 33.1667,66.1667 32.5,67.5C 31.391,67.4431 30.391,67.1098 29.5,66.5C 29.5,66.1667 29.5,65.8333 29.5,65.5C 34.5111,65.6659 39.5111,65.4993 44.5,65C 49.7267,62.77 54.7267,60.27 59.5,57.5 Z"/></g>
<g><path style="opacity:0.008" fill="#32374b" d="M 142.5,63.5 C 142.833,63.5 143.167,63.5 143.5,63.5C 143.315,64.1701 142.981,64.1701 142.5,63.5 Z"/></g>
<g><path style="opacity:0.335" fill="#fcfce6" d="M 10.5,65.5 C 16.8333,64.1667 23.1667,64.1667 29.5,65.5C 28.5084,65.3284 27.8417,65.6618 27.5,66.5C 26.5,66.5 25.5,66.5 24.5,66.5C 24.1667,65.1667 23.8333,65.1667 23.5,66.5C 22.1667,66.5 20.8333,66.5 19.5,66.5C 19.1667,65.1667 18.8333,65.1667 18.5,66.5C 17.5,66.5 16.5,66.5 15.5,66.5C 14.0813,65.5489 12.4147,65.2155 10.5,65.5 Z"/></g>
<g><path style="opacity:0.008" fill="#afb5c3" d="M 141.5,64.5 C 141.833,64.5 142.167,64.5 142.5,64.5C 142.315,65.1701 141.981,65.1701 141.5,64.5 Z"/></g>
<g><path style="opacity:0.998" fill="#0d5b48" d="M 114.5,48.5 C 114.5,52.5 114.5,56.5 114.5,60.5C 114.5,61.8333 114.5,63.1667 114.5,64.5C 114.517,66.5648 114.85,68.5648 115.5,70.5C 114.833,70.5 114.5,70.8333 114.5,71.5C 113.532,73.6074 113.198,75.9407 113.5,78.5C 76.8333,78.5 40.1667,78.5 3.5,78.5C 6.39676,76.2217 9.73009,74.7217 13.5,74C 24.5012,73.9609 35.5012,73.9609 46.5,74C 55.5,69 64.5,64 73.5,59C 81.4794,57.8359 89.4794,56.8359 97.5,56C 103.717,54.5466 109.384,52.0466 114.5,48.5 Z"/></g>
<g><path style="opacity:0.155" fill="#e1efee" d="M 100.5,63.5 C 106.324,63.3466 106.657,64.0133 101.5,65.5C 102.729,66.2811 104.062,66.7811 105.5,67C 104.062,67.2189 102.729,67.7189 101.5,68.5C 101.808,69.3081 102.308,69.9747 103,70.5C 103.893,69.2888 104.726,69.2888 105.5,70.5C 103.955,71.4519 102.288,71.7852 100.5,71.5C 100.5,68.8333 100.5,66.1667 100.5,63.5 Z"/></g>
<g><path style="opacity:0.246" fill="#d4e5e2" d="M 72.5,63.5 C 76.6759,62.8307 78.0093,64.3307 76.5,68C 75.552,68.4828 74.552,68.6495 73.5,68.5C 73.6495,69.552 73.4828,70.552 73,71.5C 72.5026,68.854 72.3359,66.1873 72.5,63.5 Z"/></g>
<g><path style="opacity:0.196" fill="#e7f3f1" d="M 93.5,63.5 C 99.2076,63.4924 99.5409,63.9924 94.5,65C 93.2528,66.4936 93.2528,67.9936 94.5,69.5C 96.0062,70.2301 97.3395,70.5634 98.5,70.5C 96.6471,71.7596 94.8138,71.7596 93,70.5C 92.2967,68.0709 92.4634,65.7375 93.5,63.5 Z"/></g>
<g><path style="opacity:0.796" fill="#ececd7" d="M 132.5,62.5 C 132.833,62.5 133.167,62.5 133.5,62.5C 133.285,64.1788 133.952,65.1788 135.5,65.5C 134.486,66.6737 133.153,67.3404 131.5,67.5C 130.89,66.609 130.557,65.609 130.5,64.5C 132.203,65.6602 132.869,64.9935 132.5,62.5 Z"/></g>
<g><path style="opacity:0.004" fill="#d7e0e5" d="M 140.5,65.5 C 140.833,65.5 141.167,65.5 141.5,65.5C 141.315,66.1701 140.981,66.1701 140.5,65.5 Z"/></g>
<g><path style="opacity:0.004" fill="#a2a2a2" d="M 138.5,67.5 C 138.5,67.1667 138.5,66.8333 138.5,66.5C 139.167,66.5 139.833,66.5 140.5,66.5C 140.158,67.3382 139.492,67.6716 138.5,67.5 Z"/></g>
<g><path style="opacity:0.882" fill="#323f51" d="M 102.5,48.5 C 93.0707,50.3388 83.7373,52.0054 74.5,53.5C 70.6733,53.7516 67.3399,55.0849 64.5,57.5C 60.6082,59.0621 57.2749,61.3954 54.5,64.5C 50.6456,65.9302 46.9789,67.5969 43.5,69.5C 39.5,69.5 35.5,69.5 31.5,69.5C 23.0464,66.6318 14.713,66.9651 6.5,70.5C 4.60204,71.0965 2.93538,71.0965 1.5,70.5C 3.5,69.5 5.5,68.5 7.5,67.5C 7.83333,67.5 8.16667,67.5 8.5,67.5C 9.49162,67.6716 10.1583,67.3382 10.5,66.5C 12.1667,66.5 13.8333,66.5 15.5,66.5C 16.5,66.5 17.5,66.5 18.5,66.5C 18.8333,66.5 19.1667,66.5 19.5,66.5C 20.8333,66.5 22.1667,66.5 23.5,66.5C 23.8333,66.5 24.1667,66.5 24.5,66.5C 25.5,66.5 26.5,66.5 27.5,66.5C 28.1667,66.5 28.8333,66.5 29.5,66.5C 30.391,67.1098 31.391,67.4431 32.5,67.5C 33.1667,67.5 33.8333,67.5 34.5,67.5C 36.5,67.5 38.5,67.5 40.5,67.5C 41.1667,67.5 41.8333,67.5 42.5,67.5C 43.609,67.4431 44.609,67.1098 45.5,66.5C 45.8333,66.5 46.1667,66.5 46.5,66.5C 51.3937,64.2271 55.727,61.2271 59.5,57.5C 63.5388,55.4806 67.5388,53.4806 71.5,51.5C 80.0781,50.8864 88.4114,49.5531 96.5,47.5C 99.6657,46.4043 102.999,45.9043 106.5,46C 105.142,46.9344 103.808,47.7677 102.5,48.5 Z"/></g>
<g><path style="opacity:0.267" fill="#fafbe7" d="M 54.5,64.5 C 51.5026,67.4965 47.836,69.1631 43.5,69.5C 46.9789,67.5969 50.6456,65.9302 54.5,64.5 Z"/></g>
<g><path style="opacity:0.008" fill="#6e7785" d="M 137.5,67.5 C 137.833,67.5 138.167,67.5 138.5,67.5C 138.315,68.1701 137.981,68.1701 137.5,67.5 Z"/></g>
<g><path style="opacity:0.363" fill="#fefde9" d="M 1.5,61.5 C 1.19244,63.924 1.52577,66.2573 2.5,68.5C 4.74542,66.3773 7.41209,65.3773 10.5,65.5C 10.5,65.8333 10.5,66.1667 10.5,66.5C 10.1583,67.3382 9.49162,67.6716 8.5,67.5C 8.16667,66.1667 7.83333,66.1667 7.5,67.5C 5.5,68.5 3.5,69.5 1.5,70.5C 0.934566,68.0479 0.2679,65.7146 -0.5,63.5C -0.5,63.1667 -0.5,62.8333 -0.5,62.5C 0.166667,62.1667 0.833333,61.8333 1.5,61.5 Z"/></g>
<g><path style="opacity:0.859" fill="#f4efb7" d="M 31.5,69.5 C 23.1329,69.2953 14.7996,69.6287 6.5,70.5C 14.713,66.9651 23.0464,66.6318 31.5,69.5 Z"/></g>
<g><path style="opacity:0.091" fill="#f9f5d5" d="M 130.5,64.5 C 129.115,65.9473 129.448,66.9473 131.5,67.5C 130.07,68.5375 128.403,69.2041 126.5,69.5C 126.672,68.5084 126.338,67.8417 125.5,67.5C 124.833,68.1667 124.167,68.8333 123.5,69.5C 121.393,70.4682 119.059,70.8016 116.5,70.5C 116.405,68.2143 115.738,66.2143 114.5,64.5C 114.5,63.1667 114.5,61.8333 114.5,60.5C 116.09,62.4746 117.257,64.8079 118,67.5C 118.186,65.0995 118.686,62.7662 119.5,60.5C 120.429,61.6888 120.762,63.0222 120.5,64.5C 121.222,64.9175 121.722,65.5842 122,66.5C 122.253,57.6556 123.92,57.6556 127,66.5C 127.333,64.5 127.667,62.5 128,60.5C 129.481,61.4709 130.315,62.8042 130.5,64.5 Z M 125.5,67.5 C 126.338,67.8417 126.672,68.5084 126.5,69.5C 125.5,69.5 124.5,69.5 123.5,69.5C 124.167,68.8333 124.833,68.1667 125.5,67.5 Z M 120.5,64.5 C 120.807,66.4458 120.807,68.1125 120.5,69.5C 119.212,67.7015 119.212,66.0348 120.5,64.5 Z"/></g>
<g><path style="opacity:0.004" fill="#a2a2a2" d="M 135.5,69.5 C 135.5,69.1667 135.5,68.8333 135.5,68.5C 136.167,68.5 136.833,68.5 137.5,68.5C 137.158,69.3382 136.492,69.6716 135.5,69.5 Z"/></g>
<g><path style="opacity:0.008" fill="#dbe4ed" d="M 135.5,69.5 C 134.833,70.1667 134.833,70.1667 135.5,69.5 Z"/></g>
<g><path style="opacity:0.506" fill="#d5e9e7" d="M 78.5,63.5 C 80.3786,63.3932 80.7119,63.8932 79.5,65C 80.2489,66.7337 80.7489,68.567 81,70.5C 81.7412,69.3595 82.5745,69.3595 83.5,70.5C 84.1867,68.7256 85.0201,67.0589 86,65.5C 87,69.5 88,69.5 89,65.5C 90.541,67.477 91.041,69.477 90.5,71.5C 89.6721,70.5853 88.6721,69.9186 87.5,69.5C 84.6944,71.0638 81.6944,71.7305 78.5,71.5C 78.5,68.8333 78.5,66.1667 78.5,63.5 Z"/></g>
<g><path style="opacity:0.004" fill="#898f94" d="M 131.5,71.5 C 131.5,71.1667 131.5,70.8333 131.5,70.5C 134.167,70.8333 134.167,71.1667 131.5,71.5 Z"/></g>
<g><path style="opacity:0.039" fill="#f1f1e4" d="M 1.5,70.5 C 2.93538,71.0965 4.60204,71.0965 6.5,70.5C 5.15161,71.6006 3.65161,72.6006 2,73.5C 1.22039,75.3869 1.38705,77.0536 2.5,78.5C 2.5,78.8333 2.5,79.1667 2.5,79.5C 1.83333,79.5 1.16667,79.5 0.5,79.5C 0.189998,76.2869 0.523331,73.2869 1.5,70.5 Z"/></g>
<g><path style="opacity:0.004" fill="#9ca5a6" d="M 131.5,71.5 C 131.103,72.525 130.437,72.6917 129.5,72C 130.094,71.5357 130.761,71.369 131.5,71.5 Z"/></g>
<g><path style="opacity:0.008" fill="#616773" d="M 125.5,72.5 C 126.552,72.3505 127.552,72.5172 128.5,73C 127.251,73.7401 126.251,73.5735 125.5,72.5 Z"/></g>
<g><path style="opacity:1" fill="#7fb6ae" d="M 84.5,73.5 C 86.4771,74.1495 88.3105,74.1495 90,73.5C 89.9423,74.98 91.1089,75.8133 93.5,76C 90.5184,76.498 87.5184,76.6646 84.5,76.5C 84.5,75.5 84.5,74.5 84.5,73.5 Z"/></g>
<g><path style="opacity:0.933" fill="#60968e" d="M 114.5,71.5 C 118.167,71.5 121.833,71.5 125.5,71.5C 125.5,71.8333 125.5,72.1667 125.5,72.5C 122.167,72.5 118.833,72.5 115.5,72.5C 115.5,74.8333 115.5,77.1667 115.5,79.5C 77.8333,79.5 40.1667,79.5 2.5,79.5C 2.5,79.1667 2.5,78.8333 2.5,78.5C 2.83333,78.5 3.16667,78.5 3.5,78.5C 40.1667,78.5 76.8333,78.5 113.5,78.5C 113.198,75.9407 113.532,73.6074 114.5,71.5 Z"/></g>
<g><path style="opacity:0.004" fill="#9caaad" d="M 117.5,79.5 C 117.167,79.5 116.833,79.5 116.5,79.5C 116.5,77.5 116.5,75.5 116.5,73.5C 119.187,73.3359 121.854,73.5026 124.5,74C 122.19,74.4966 119.857,74.6633 117.5,74.5C 117.5,76.1667 117.5,77.8333 117.5,79.5 Z"/></g>
</svg>
